<?xml version="1.0" encoding="UTF-8"?>
<svg id="Layer_2" data-name="Layer 2" xmlns="http://www.w3.org/2000/svg" viewBox="0 0 16 16">
  <defs>
    <style>
      .cls-1 {
        fill: #fff;
      }

      .cls-2 {
        fill: #48b660;
      }

      .cls-3 {
        fill: #44b961;
      }

      .cls-4 {
        fill: #181f27;
      }
    </style>
  </defs>
  <g id="Layer_1-2" data-name="Layer 1">
    <g>
      <rect class="cls-4" width="16" height="16"/>
      <g>
        <path class="cls-2" d="M4,5.53L10.08,1v2.57c-.39.29-.78.58-1.17.87-.14-.07-.28-.15-.43-.22l-1.71,1.31c0,.19,0,.38.01.56-.93.72-1.86,1.45-2.79,2.17v-2.74Z"/>
        <polygon class="cls-1" points="7.84 6.39 7.84 9.07 5.94 10.54 5.94 13.11 4 11.6 4 9.29 7.84 6.39"/>
        <polygon class="cls-3" points="8.94 8.27 8.94 5.64 10.08 6.64 10.08 5.55 9.51 5.04 12 3.1 12 5.92 8.94 8.27"/>
        <path class="cls-1" d="M10.08,10.96v-1.03l-1.14.89v-1.45l3.06-2.45v2.83l-1.69,1.36v2.54c-.62.45-1.24.9-1.87,1.35-.61-.45-1.22-.9-1.84-1.35v-2.94c.62.53,1.23,1.05,1.85,1.58l1.63-1.34Z"/>
      </g>
    </g>
  </g>
</svg>